<svg xmlns="http://www.w3.org/2000/svg" xlink="http://www.w3.org/1999/xlink" width="0" height="0" style="display:none;"><symbol viewBox="0 0 24 24" id="arrow-right-s-line"><path fill="none" d="M0 0h24v24H0z"/><path d="M13.172 12l-4.95-4.95 1.414-1.414L16 12l-6.364 6.364-1.414-1.414z"/></symbol><symbol viewBox="0 0 24 24" id="shopping-cart-fill"><path fill="none" d="M0 0h24v24H0z"/><path d="M6 9h13.938l.5-2H8V5h13.72a1 1 0 0 1 .97 1.243l-2.5 10a1 1 0 0 1-.97.757H5a1 1 0 0 1-1-1V4H2V2h3a1 1 0 0 1 1 1v6zm0 14a2 2 0 1 1 0-4 2 2 0 0 1 0 4zm12 0a2 2 0 1 1 0-4 2 2 0 0 1 0 4z"/></symbol><symbol viewBox="0 0 24 24" id="cellphone-line"><path fill="none" d="M0 0h24v24H0z"/><path d="M7 2h11a1 1 0 0 1 1 1v18a1 1 0 0 1-1 1H6a1 1 0 0 1-1-1V0h2v2zm0 7h10V4H7v5zm0 2v9h10v-9H7z"/></symbol><symbol viewBox="0 0 24 24" id="user-line"><path fill="none" d="M0 0h24v24H0z"/><path d="M4 22a8 8 0 1 1 16 0h-2a6 6 0 1 0-12 0H4zm8-9c-3.315 0-6-2.685-6-6s2.685-6 6-6 6 2.685 6 6-2.685 6-6 6zm0-2c2.21 0 4-1.79 4-4s-1.79-4-4-4-4 1.79-4 4 1.79 4 4 4z"/></symbol><symbol viewBox="0 0 24 24" id="customer-service-2-fill"><path fill="none" d="M0 0h24v24H0z"/><path d="M21 8a2 2 0 0 1 2 2v4a2 2 0 0 1-2 2h-1.062A8.001 8.001 0 0 1 12 23v-2a6 6 0 0 0 6-6V9A6 6 0 1 0 6 9v7H3a2 2 0 0 1-2-2v-4a2 2 0 0 1 2-2h1.062a8.001 8.001 0 0 1 15.876 0H21zM7.76 15.785l1.06-1.696A5.972 5.972 0 0 0 12 15a5.972 5.972 0 0 0 3.18-.911l1.06 1.696A7.963 7.963 0 0 1 12 17a7.963 7.963 0 0 1-4.24-1.215z"/></symbol><symbol viewBox="0 0 24 24" id="service-line"><path fill="none" d="M0 0h24v24H0z"/><path d="M3.161 4.469a6.5 6.5 0 0 1 8.84-.328 6.5 6.5 0 0 1 9.178 9.154l-7.765 7.79a2 2 0 0 1-2.719.102l-.11-.101-7.764-7.791a6.5 6.5 0 0 1 .34-8.826zm1.414 1.414a4.5 4.5 0 0 0-.146 6.21l.146.154L12 19.672l5.303-5.304-3.535-3.535-1.06 1.06a3 3 0 1 1-4.244-4.242l2.102-2.103a4.501 4.501 0 0 0-5.837.189l-.154.146zm8.486 2.828a1 1 0 0 1 1.414 0l4.242 4.242.708-.706a4.5 4.5 0 0 0-6.211-6.51l-.153.146-3.182 3.182a1 1 0 0 0-.078 1.327l.078.087a1 1 0 0 0 1.327.078l.087-.078 1.768-1.768z"/></symbol><symbol viewBox="0 0 24 24" id="arrow-right-circle-line"><path fill="none" d="M0 0h24v24H0z"/><path d="M12 11V8l4 4-4 4v-3H8v-2h4zm0-9c5.52 0 10 4.48 10 10s-4.48 10-10 10S2 17.52 2 12 6.48 2 12 2zm0 18c4.42 0 8-3.58 8-8s-3.58-8-8-8-8 3.58-8 8 3.58 8 8 8z"/></symbol><symbol viewBox="0 0 24 24" id="gift-line"><path fill="none" d="M0 0h24v24H0z"/><path d="M15 2a4 4 0 0 1 3.464 6.001L23 8v2h-2v10a1 1 0 0 1-1 1H4a1 1 0 0 1-1-1V10H1V8l4.536.001A4 4 0 0 1 12 3.355 3.983 3.983 0 0 1 15 2zm-4 8H5v9h6v-9zm8 0h-6v9h6v-9zM9 4a2 2 0 0 0-.15 3.995L9 8h2V6a2 2 0 0 0-1.697-1.977l-.154-.018L9 4zm6 0a2 2 0 0 0-1.995 1.85L13 6v2h2a2 2 0 0 0 1.995-1.85L17 6a2 2 0 0 0-2-2z"/></symbol><symbol viewBox="0 0 24 24" id="settings-2-line"><path fill="none" d="M0 0h24v24H0z"/><path d="M8.686 4l2.607-2.607a1 1 0 0 1 1.414 0L15.314 4H19a1 1 0 0 1 1 1v3.686l2.607 2.607a1 1 0 0 1 0 1.414L20 15.314V19a1 1 0 0 1-1 1h-3.686l-2.607 2.607a1 1 0 0 1-1.414 0L8.686 20H5a1 1 0 0 1-1-1v-3.686l-2.607-2.607a1 1 0 0 1 0-1.414L4 8.686V5a1 1 0 0 1 1-1h3.686zM6 6v3.515L3.515 12 6 14.485V18h3.515L12 20.485 14.485 18H18v-3.515L20.485 12 18 9.515V6h-3.515L12 3.515 9.515 6H6zm6 10a4 4 0 1 1 0-8 4 4 0 0 1 0 8zm0-2a2 2 0 1 0 0-4 2 2 0 0 0 0 4z"/></symbol><symbol viewBox="0 0 24 24" id="map-pin-line"><path fill="none" d="M0 0h24v24H0z"/><path d="M12 20.9l4.95-4.95a7 7 0 1 0-9.9 0L12 20.9zm0 2.828l-6.364-6.364a9 9 0 1 1 12.728 0L12 23.728zM12 13a2 2 0 1 0 0-4 2 2 0 0 0 0 4zm0 2a4 4 0 1 1 0-8 4 4 0 0 1 0 8z"/></symbol><symbol viewBox="0 0 24 24" id="search-line"><path fill="none" d="M0 0h24v24H0z"/><path d="M18.031 16.617l4.283 4.282-1.415 1.415-4.282-4.283A8.96 8.96 0 0 1 11 20c-4.968 0-9-4.032-9-9s4.032-9 9-9 9 4.032 9 9a8.96 8.96 0 0 1-1.969 5.617zm-2.006-.742A6.977 6.977 0 0 0 18 11c0-3.868-3.133-7-7-7-3.868 0-7 3.132-7 7 0 3.867 3.132 7 7 7a6.977 6.977 0 0 0 4.875-1.975l.15-.15z"/></symbol><symbol viewBox="0 0 24 24" id="hotel-line"><path fill="none" d="M0 0h24v24H0z"/><path d="M22 21H2v-2h1V4a1 1 0 0 1 1-1h14a1 1 0 0 1 1 1v5h2v10h1v2zm-5-2h2v-8h-6v8h2v-6h2v6zm0-10V5H5v14h6V9h6zM7 11h2v2H7v-2zm0 4h2v2H7v-2zm0-8h2v2H7V7z"/></symbol><symbol viewBox="0 0 24 24" id="sd-card-fill"><path fill="none" d="M0 0h24v24H0z"/><path d="M4.293 6.707L9 2h10a1 1 0 0 1 1 1v18a1 1 0 0 1-1 1H5a1 1 0 0 1-1-1V7.414a1 1 0 0 1 .293-.707zM15 5v4h2V5h-2zm-3 0v4h2V5h-2zM9 5v4h2V5H9z"/></symbol><symbol viewBox="0 0 24 24" id="exchange-cny-line"><path fill="none" d="M0 0h24v24H0z"/><path d="M19.375 15.103A8.001 8.001 0 0 0 8.03 5.053l-.992-1.737A9.996 9.996 0 0 1 17 3.34c4.49 2.592 6.21 8.142 4.117 12.77l1.342.774-4.165 2.214-.165-4.714 1.246.719zM4.625 8.897a8.001 8.001 0 0 0 11.345 10.05l.992 1.737A9.996 9.996 0 0 1 7 20.66C2.51 18.068.79 12.518 2.883 7.89L1.54 7.117l4.165-2.214.165 4.714-1.246-.719zM13 13.536h3v2h-3v2h-2v-2H8v-2h3v-1H8v-2h2.586L8.464 8.414 9.88 7 12 9.121 14.121 7l1.415 1.414-2.122 2.122H16v2h-3v1z"/></symbol><symbol viewBox="0 0 24 24" id="shield-user-line"><path fill="none" d="M0 0h24v24H0z"/><path d="M3.783 2.826L12 1l8.217 1.826a1 1 0 0 1 .783.976v9.987a6 6 0 0 1-2.672 4.992L12 23l-6.328-4.219A6 6 0 0 1 3 13.79V3.802a1 1 0 0 1 .783-.976zM5 4.604v9.185a4 4 0 0 0 1.781 3.328L12 20.597l5.219-3.48A4 4 0 0 0 19 13.79V4.604L12 3.05 5 4.604zM12 11a2.5 2.5 0 1 1 0-5 2.5 2.5 0 0 1 0 5zm-4.473 5a4.5 4.5 0 0 1 8.946 0H7.527z"/></symbol><symbol viewBox="0 0 24 24" id="money-cny-box-line"><path fill="none" d="M0 0h24v24H0z"/><path d="M3 3h18a1 1 0 0 1 1 1v16a1 1 0 0 1-1 1H3a1 1 0 0 1-1-1V4a1 1 0 0 1 1-1zm1 2v14h16V5H4zm9 8h3v2h-3v2h-2v-2H8v-2h3v-1H8v-2h2.586L8.464 7.879 9.88 6.464 12 8.586l2.121-2.122 1.415 1.415L13.414 10H16v2h-3v1z"/></symbol></svg>